<?xml version="1.0" ?><svg style="enable-background:new 0 0 48 48;" version="1.1" viewBox="0 0 48 48" xml:space="preserve" xmlns="http://www.w3.org/2000/svg" xmlns:xlink="http://www.w3.org/1999/xlink"><g id="Icons"><ellipse cx="24" cy="38.97918" rx="2.97" ry="0.85673" style="fill:#4AA0EC;"/><g><path d="M23.99965,8.16195c-5.37,0-9.71002,4.35004-9.71002,9.71002c0,1.71002,0.44,3.31,1.23004,4.70001    l-0.01001,0.01001l7.76996,11.63c0.34003,0.51001,1.10004,0.51001,1.44,0l7.76001-11.63v-0.01001    c0.79004-1.39001,1.23004-2.98999,1.23004-4.70001C33.70967,12.51198,29.34962,8.16195,23.99965,8.16195z M24.32966,24.05196    c-2.84003,0.17999-5.29004-1.96997-5.47003-4.81c-0.17999-2.83002,1.98004-5.27997,4.82001-5.45996    c2.83002-0.18005,5.28003,1.97998,5.46002,4.81C29.31965,21.43197,27.15962,23.87197,24.32966,24.05196z" style="fill:#4AA0EC;"/><line style="fill:none;stroke:#303030;stroke-width:0.7;stroke-linecap:round;stroke-linejoin:round;stroke-miterlimit:10;" x1="16.48186" x2="16.50631" y1="24.03164" y2="24.05609"/><path d="    M32.48301,22.58122l-7.76333,11.63006c-0.34316,0.51408-1.09871,0.51408-1.44187,0l-7.76333-11.63006l0.00163-0.0043    c-0.78238-1.39361-1.22246-2.99503-1.22246-4.70648c0-5.35438,4.33974-9.70635,9.70635-9.70635    c5.35439,0,9.70635,4.35197,9.70635,9.70635c0,1.71145-0.44009,3.31287-1.22247,4.70648L32.48301,22.58122z" style="fill:none;stroke:#303030;stroke-width:0.7;stroke-linecap:round;stroke-linejoin:round;stroke-miterlimit:10;"/><path d="    M30.97119,15.14711c0.17787,0.62385,0.26063,1.28602,0.23215,1.96898" style="fill:none;stroke:#303030;stroke-width:0.7;stroke-linecap:round;stroke-linejoin:round;stroke-miterlimit:10;"/><path d="    M25.22595,10.61856c2.09651,0.08741,3.91058,1.20312,4.9756,2.83991" style="fill:none;stroke:#303030;stroke-width:0.7;stroke-linecap:round;stroke-linejoin:round;stroke-miterlimit:10;"/><ellipse cx="24" cy="18.91938" rx="5.14617" ry="5.14617" style="fill:none;stroke:#303030;stroke-width:0.7;stroke-linecap:round;stroke-linejoin:round;stroke-miterlimit:10;" transform="matrix(0.998 -0.06316 0.06316 0.998 -1.14698 1.55354)"/></g><ellipse cx="24" cy="38.97918" rx="2.97" ry="0.85673" style="fill:none;stroke:#303030;stroke-width:0.7;stroke-linecap:round;stroke-linejoin:round;stroke-miterlimit:10;"/></g></svg>