<?xml version="1.0" encoding="iso-8859-1"?>
<!-- Generator: Adobe Illustrator 19.0.0, SVG Export Plug-In . SVG Version: 6.00 Build 0)  -->
<svg version="1.1" id="Capa_1" xmlns="http://www.w3.org/2000/svg" xmlns:xlink="http://www.w3.org/1999/xlink" x="0px" y="0px"
	 viewBox="0 0 511.998 511.998" style="enable-background:new 0 0 511.998 511.998;" xml:space="preserve">
<polyline style="fill:#FEB500;" points="302.949,94.247 302.949,335.953 209.045,335.445 209.045,97.854 "/>
<polygon style="fill:#785749;" points="325.769,270.507 288.546,250.968 258.228,282.548 197.531,250.932 51.194,504.394 
	460.804,504.394 "/>
<polyline style="fill:#4D2D32;" points="377.834,504.394 288.546,250.968 258.228,282.548 256.445,504.394 "/>
<path style="fill:#C0C4CF;" d="M408.993,123.113c0,5.314-1.105,10.365-3.114,14.949c-5.01,11.47-15.619,19.929-28.367,21.947
	c0.101,1.105,0.162,2.231,0.162,3.367c0,20.629-16.724,37.353-37.363,37.353c-18.631,0-34.087-13.651-36.896-31.491l-95.07,1.339
	c-3.347,17.18-18.489,30.152-36.663,30.152c-20.629,0-37.363-16.724-37.363-37.353c0-1.136,0.061-2.262,0.162-3.367
	c-12.748-2.018-23.357-10.477-28.367-21.947c-2.008-4.584-3.114-9.635-3.114-14.949c0-14.209,7.921-26.552,19.584-32.86
	c1.136-0.619,2.302-1.176,3.509-1.673c-0.71-1.582-1.339-3.215-1.886-4.888c-1.521-4.706-2.353-9.726-2.353-14.949
	c0-26.785,21.714-48.499,48.499-48.499c10.142,0,19.564,3.114,27.343,8.438c4.006-12.231,15.507-21.075,29.077-21.075
	c13.742,0,25.375,9.067,29.229,21.552c3.854-12.485,15.477-21.552,29.229-21.552c13.57,0,25.071,8.844,29.067,21.075
	c7.789-5.325,17.201-8.438,27.343-8.438c26.785,0,48.499,21.714,48.499,48.499c0,5.213-0.832,10.233-2.363,14.939
	c-0.538,1.673-1.166,3.306-1.876,4.899c1.207,0.497,2.373,1.055,3.509,1.673C401.072,96.561,408.993,108.904,408.993,123.113z"/>
<path style="fill:#E4E8F1;" d="M377.512,160.009c0.101,1.105,0.162,2.231,0.162,3.367c0,20.629-16.724,37.353-37.363,37.353
	c-18.631,0-34.087-13.651-36.896-31.491l-95.07,1.339c-3.347,17.18-18.489,30.152-36.663,30.152
	c-20.629,0-37.363-16.724-37.363-37.353c0-1.136,0.061-2.262,0.162-3.367c-17.84-2.819-31.48-18.266-31.48-36.896
	c0-15.588,9.544-28.935,23.093-34.533c-0.71-1.582-1.339-3.215-1.886-4.888c6.308-19.462,24.584-33.529,46.146-33.529
	c10.142,0,19.564,3.114,27.343,8.438c4.006-12.231,15.507-21.075,29.077-21.075c13.742,0,25.375,9.067,29.229,21.552
	c3.854-12.485,15.477-21.552,29.229-21.552c13.57,0,25.071,8.844,29.067,21.075c7.789-5.325,17.201-8.438,27.343-8.438
	c21.562,0,39.827,14.067,46.136,33.519c-0.538,1.673-1.166,3.306-1.876,4.899c13.56,5.598,23.093,18.945,23.093,34.533
	C408.993,141.743,395.352,157.189,377.512,160.009z"/>
<polyline style="fill:#4D2D32;" points="168.932,375.67 197.531,250.932 51.194,504.394 133.944,504.394 "/>
<path d="M467.391,500.59L332.357,266.704c-0.719-1.246-1.778-2.263-3.052-2.932l-18.748-9.842v-56.756
	c7.951,6.996,18.381,11.161,29.756,11.161c23.915,0,43.528-18.76,44.894-42.332c18.533-5.789,31.394-22.893,31.394-42.89
	c0-15.785-8.138-30.107-21.235-38.21c1.58-5.232,2.381-10.663,2.381-16.161c0-4.624-0.554-9.163-1.651-13.574
	c-1.117-4.487-6.012-6.891-10.272-5.09l-0.091,0.039c-3.467,1.467-5.251,5.241-4.359,8.897c0.771,3.16,1.16,6.414,1.16,9.728
	c0,4.294-0.669,8.528-1.998,12.611c-0.428,1.331-0.939,2.672-1.521,3.991c-0.394,0.89-0.673,1.837-0.717,2.809
	c-0.153,3.374,1.814,6.265,4.701,7.456c11.171,4.612,18.389,15.408,18.389,27.503c0,14.745-10.561,27.112-25.104,29.389
	c-3.982,0.624-6.688,4.317-6.333,8.333c0.08,0.906,0.119,1.738,0.119,2.542c0,16.403-13.349,29.746-29.756,29.746
	c-11.763,0-22.294-7.092-27.054-17.398c18.864-4.386,32.991-21.262,33.128-41.41c0.026-3.927-2.836-7.424-6.739-7.855
	c-4.589-0.507-8.473,3.072-8.473,7.559c0,15.227-12.388,27.615-27.615,27.615c-15.122,0-27.444-12.217-27.613-27.3
	c-0.047-4.114-3.128-7.718-7.236-7.913c-4.37-0.208-7.978,3.274-7.978,7.597c0,20.805,14.915,38.185,34.612,42.029v69.898
	l-3.262-1.712c-2.999-1.574-6.677-0.976-9.022,1.468l-26.371,27.47l-40.036-20.855v-75.172
	c11.672-3.298,20.291-13.947,20.499-26.611c0.066-4.019-2.812-7.631-6.811-8.035c-4.556-0.46-8.399,3.104-8.399,7.566
	c0,7.13-5.8,12.93-12.93,12.93c-7.032,0-12.772-5.643-12.927-12.639c-0.088-3.964-2.89-7.47-6.837-7.859
	c-4.548-0.448-8.379,3.113-8.379,7.568c0,11.82,7.329,21.954,17.677,26.116c-5.305,11.121-17.265,18.236-30.302,16.746
	c-14.246-1.628-25.237-13.51-26.256-27.812c-0.099-1.39-0.081-2.778,0.068-4.403c0.364-3.957-2.381-7.593-6.308-8.204
	c-14.562-2.263-25.14-14.638-25.14-29.395c0-12.009,7.122-22.741,18.164-27.409c1.005-0.425,1.965-0.98,2.727-1.762
	c2.283-2.342,2.783-5.697,1.534-8.479c-0.593-1.32-1.131-2.713-1.588-4.113c-1.772-5.482-2.368-11.273-1.743-17.083
	c2.154-20.016,18.955-35.633,39.072-36.389c8.747-0.329,17.209,2.079,24.382,6.914c1.37,0.924,2.961,1.526,4.615,1.499
	c3.364-0.055,6.164-2.223,7.154-5.243c3.1-9.47,11.881-15.835,21.847-15.835c10.14,0,18.96,6.497,21.955,16.169
	c0.632,2.04,2.019,3.792,3.97,4.661c4.531,2.02,9.27-0.423,10.573-4.643c2.988-9.681,11.814-16.188,21.96-16.188
	c9.963,0,18.736,6.357,21.832,15.819c0.325,0.992,0.803,1.937,1.511,2.703c2.777,3,7,3.287,10.015,1.226
	c6.806-4.652,14.777-7.112,23.051-7.112c8.008,0,15.751,2.329,22.358,6.648c3.142,2.055,7.292,1.601,9.816-1.176l0.069-0.076
	c3.143-3.458,2.405-8.881-1.502-11.444c-9.079-5.954-19.728-9.165-30.74-9.165c-8.374,0-16.525,1.839-23.976,5.368
	C310.816,6.965,298.676,0,285.231,0c-11.593,0-22.149,5.114-29.229,13.542C248.923,5.114,238.366,0,226.773,0
	c-13.44,0-25.583,6.966-32.437,18.004c-8.569-4.061-18.071-5.882-27.781-5.242c-27.654,1.824-50.075,24.071-52.146,51.706
	c-0.52,6.936,0.226,13.823,2.212,20.441c-13.091,8.107-21.226,22.425-21.226,38.203c0,19.997,12.861,37.101,31.394,42.89
	c1.366,23.572,20.98,42.332,44.893,42.332c11.283,0,21.757-4.22,29.756-11.274v47.329l-0.394-0.205
	c-3.614-1.88-8.065-0.584-10.101,2.943l-82.292,142.534c-2.1,3.638-0.854,8.29,2.784,10.39c3.637,2.1,8.289,0.853,10.39-2.784
	l56.975-98.685l-17.284,75.387c-0.938,4.095,1.62,8.175,5.714,9.115c0.572,0.131,1.144,0.194,1.707,0.194
	c3.467,0,6.599-2.385,7.408-5.908l26.4-115.147l47.838,24.919l-1.028,128.018c-0.034,4.201,3.344,7.633,7.545,7.667
	c0.021,0,0.042,0,0.063,0c4.171,0,7.571-3.365,7.604-7.546l1.043-129.649l19.666-20.487l25.36,71.978
	c1.101,3.127,4.037,5.081,7.174,5.081c1.144,0,2.315-0.26,3.433-0.818c3.463-1.732,4.94-5.915,3.653-9.568l-22.943-65.119
	l18.13,9.517l127.346,220.568H64.369l43.648-75.599c2.083-3.608,1.118-8.36-2.428-10.55c-3.666-2.264-8.449-1.038-10.587,2.666
	l-50.394,87.284c-1.647,2.853-1.298,6.509,1.049,9.02c1.476,1.579,3.601,2.389,5.762,2.389H460.58c2.161,0,4.287-0.81,5.762-2.389
	C468.688,507.098,469.038,503.443,467.391,500.59z"/>
<path d="M240.428,184.506v59.327c0,4.201,3.406,7.606,7.606,7.606c4.201,0,7.606-3.406,7.606-7.606v-59.327
	c0-4.201-3.406-7.606-7.606-7.606C243.834,176.899,240.428,180.305,240.428,184.506z"/>
<path d="M389.058,270.394c4.201,0,7.606-3.406,7.606-7.606c0-24.325-19.79-44.115-44.116-44.115
	c-11.784,0-22.862,4.588-31.193,12.921c-2.971,2.971-2.971,7.787,0,10.757c2.971,2.971,7.787,2.971,10.757,0
	c5.458-5.458,12.717-8.465,20.437-8.465c15.937,0,28.903,12.965,28.903,28.902C381.452,266.989,384.857,270.394,389.058,270.394z"/>
<path d="M154.274,233.886c7.72,0,14.979,3.006,20.437,8.465c2.971,2.971,7.787,2.971,10.757,0c2.971-2.971,2.971-7.787,0-10.757
	c-8.332-8.333-19.411-12.921-31.194-12.921c-24.325,0-44.115,19.79-44.115,44.115c0,4.201,3.406,7.606,7.606,7.606
	c4.201,0,7.606-3.406,7.606-7.606C125.371,246.851,138.337,233.886,154.274,233.886z"/>
<path d="M382.036,294.913c2.576,6.099,11.48,6.13,14.047,0c1.295-3.093,0.331-6.813-2.314-8.881
	c-2.486-1.944-5.986-2.156-8.68-0.508C381.951,287.442,380.6,291.51,382.036,294.913z"/>
<path d="M121.987,285.684c-2.775-1.827-6.465-1.663-9.049,0.442c-2.614,2.131-3.494,5.881-2.123,8.956
	c2.734,6.131,11.835,5.807,14.105-0.516C126.084,291.33,124.868,287.581,121.987,285.684z"/>
<g>
</g>
<g>
</g>
<g>
</g>
<g>
</g>
<g>
</g>
<g>
</g>
<g>
</g>
<g>
</g>
<g>
</g>
<g>
</g>
<g>
</g>
<g>
</g>
<g>
</g>
<g>
</g>
<g>
</g>
</svg>
